# xmcd CD database file
# Copyright (C) 1993-1998 Ti Kan
#
# Track frame offsets:
#	150
#	16979
#	46018
#	64381
#	81150
#	98609
#	114857
#	137204
#	156090
#	173136
#	189713
#	205720
#	223496
#	241902
#	259152
#	276155
#	292536
#	306820
#
# Disc length: 4337 seconds
#
# Revision: 1
# Processed by: cddbd v1.4b41PL1 Copyright (c) Steve Scherf et al.
# Submitted via: QuintessentialCD v1.1 (c) 1998 Paul Quinn
#
DISCID=fa10ef12
DTITLE=Take That - Greatest Hits
DYEAR=1900
DGENRE=
TTITLE0=How Deep Is Your Love
TTITLE1=Never Forget
TTITLE2=Back For Good
TTITLE3=Sure
TTITLE4=Love Ain´t Here Anymore
TTITLE5=Everything Changes
TTITLE6=Babe
TTITLE7=Relight My Fire
TTITLE8=Pray
TTITLE9=Why Can´t Wake Up With You
TTITLE10=Could Be Magic
TTITLE11=A Million Love Songs
TTITLE12=I Found Heaven
TTITLE13=It Only Takes a Minute
TTITLE14=Once You´ve Taste Love
TTITLE15=Promises
TTITLE16=Do What U Like
TTITLE17=Love Ain´t Here Anymore (U.S. Version)
EXTD=
EXTT0=
EXTT1=
EXTT2=
EXTT3=
EXTT4=
EXTT5=
EXTT6=
EXTT7=
EXTT8=
EXTT9=
EXTT10=
EXTT11=
EXTT12=
EXTT13=
EXTT14=
EXTT15=
EXTT16=
EXTT17=
PLAYORDER=
